HIERARCHY
ROOT Hips
{
	OFFSET -0.001795 -0.223333 0.028219
	CHANNELS 6 Xposition Yposition Zposition Zrotation Yrotation Xrotation 
	JOINT LeftUpLeg
	{
		OFFSET 0.069520 -0.091406 -0.006815
		CHANNELS 3 Zrotation Yrotation Xrotation
		JOINT LeftLeg
		{
			OFFSET 0.034277 -0.375199 -0.004496
			CHANNELS 3 Zrotation Yrotation Xrotation
			JOINT LeftFoot
			{
				OFFSET -0.013596 -0.397961 -0.043693
				CHANNELS 3 Zrotation Yrotation Xrotation
				JOINT LeftToe
				{
					OFFSET 0.026358 -0.055791 0.119288
					CHANNELS 3 Zrotation Yrotation Xrotation
					End Site
					{
						OFFSET 0.000000 0.000000 0.000000
					}
				}
			}
		}
	}
	JOINT RightUpLeg
	{
		OFFSET -0.067670 -0.090522 -0.004320
		CHANNELS 3 Zrotation Yrotation Xrotation
		JOINT RightLeg
		{
			OFFSET -0.038290 -0.382569 -0.008850
			CHANNELS 3 Zrotation Yrotation Xrotation
			JOINT RightFoot
			{
				OFFSET 0.015774 -0.398415 -0.042312
				CHANNELS 3 Zrotation Yrotation Xrotation
				JOINT RightToe
				{
					OFFSET -0.025372 -0.048144 0.123348
					CHANNELS 3 Zrotation Yrotation Xrotation
					End Site
					{
						OFFSET 0.000000 0.000000 0.000000
					}
				}
			}
		}
	}
	JOINT Spine
	{
		OFFSET -0.002533 0.108963 -0.026696
		CHANNELS 3 Zrotation Yrotation Xrotation
		JOINT Spine1
		{
			OFFSET 0.005487 0.135180 0.001092
			CHANNELS 3 Zrotation Yrotation Xrotation
			JOINT Spine2
			{
				OFFSET 0.001457 0.052922 0.025425
				CHANNELS 3 Zrotation Yrotation Xrotation
				JOINT Neck
				{
					OFFSET -0.002778 0.213870 -0.042857
					CHANNELS 3 Zrotation Yrotation Xrotation
					JOINT Head
					{
						OFFSET 0.005152 0.064970 0.051349
						CHANNELS 3 Zrotation Yrotation Xrotation
						End Site
						{
							OFFSET 0.000000 0.000000 0.000000
						}
					}
				}
				JOINT LeftShoulder
				{
					OFFSET 0.078845 0.121749 -0.034090
					CHANNELS 3 Zrotation Yrotation Xrotation
					JOINT LeftArm
					{
						OFFSET 0.090977 0.030469 -0.008868
						CHANNELS 3 Zrotation Yrotation Xrotation
						JOINT LeftForeArm
						{
							OFFSET 0.259612 -0.012772 -0.027456
							CHANNELS 3 Zrotation Yrotation Xrotation
							JOINT LeftHand
							{
								OFFSET 0.249234 0.008986 -0.001171
								CHANNELS 3 Zrotation Yrotation Xrotation
								End Site
								{
									OFFSET 0.000000 0.000000 0.000000
								}
							}
						}
					}
				}
				JOINT RightShoulder
				{
					OFFSET -0.081759 0.118833 -0.038615
					CHANNELS 3 Zrotation Yrotation Xrotation
					JOINT RightArm
					{
						OFFSET -0.096012 0.032551 -0.009143
						CHANNELS 3 Zrotation Yrotation Xrotation
						JOINT RightForeArm
						{
							OFFSET -0.253742 -0.013329 -0.021401
							CHANNELS 3 Zrotation Yrotation Xrotation
							JOINT RightHand
							{
								OFFSET -0.255298 0.007772 -0.005559
								CHANNELS 3 Zrotation Yrotation Xrotation
								End Site
								{
									OFFSET 0.000000 0.000000 0.000000
								}
							}
						}
					}
				}
			}
		}
	}
}
MOTION
Frames: 8
Frame Time: 0.050000
0.000000 0.914725 0.000000 2.897617 -0.315387 -0.220083 8.172629 -0.326345 -11.966563 -4.603567 0.634576 16.314580 5.914580 13.712577 9.116763 0.000000 0.000000 0.000000 -14.006289 -0.057383 -17.318774 7.833755 -1.435691 21.031392 -6.306421 -17.044507 15.897154 0.000000 0.000000 0.000000 8.317409 -3.965952 34.122284 -3.954294 1.664583 -16.582825 -1.339225 4.477003 23.652837 16.237262 -10.366084 -14.795120 0.000000 0.000000 0.000000 -9.427421 -33.268174 13.298252 -34.694222 -29.940968 2.645727 -9.844646 -59.094413 7.709357 0.000000 0.000000 0.000000 19.820829 24.177771 13.349129 38.234914 42.932259 7.859226 -9.127961 40.885490 -1.277182 0.000000 0.000000 0.000000 
-0.000486 0.911620 0.000285 3.240398 0.176566 0.197709 8.039548 -0.365055 -12.172513 -4.927722 0.691932 15.780878 5.873512 13.541859 8.127682 0.000000 0.000000 0.000000 -14.771683 -0.193449 -17.921656 8.492478 -1.689286 21.590301 -6.687123 -17.574900 15.106092 0.000000 0.000000 0.000000 7.641038 -3.889947 34.747186 -2.540084 1.229912 -17.517123 -1.482751 5.887303 23.129260 16.877778 -10.588394 -14.823852 0.000000 0.000000 0.000000 -11.511829 -32.310260 13.069316 -35.367833 -29.145036 2.577400 -17.452665 -58.607739 11.722245 0.000000 0.000000 0.000000 20.085830 22.591013 12.995272 39.532528 42.840811 8.244775 -9.388865 42.423907 -1.275261 0.000000 0.000000 0.000000 
-0.000735 0.910013 0.000539 3.637752 0.518355 -0.707835 8.111149 -0.337650 -11.624890 -5.752134 0.895912 16.471226 5.708611 13.219941 7.747416 0.000000 0.000000 0.000000 -14.926414 -0.246544 -17.208386 8.005236 -1.585908 22.343278 -6.823911 -17.729450 14.395278 0.000000 0.000000 0.000000 8.156727 -4.135249 35.355093 -2.853576 1.340947 -17.302687 -2.122659 4.583331 22.209240 16.486601 -10.793205 -13.624439 0.000000 0.000000 0.000000 -12.236728 -31.880904 13.196921 -34.808879 -28.521267 2.385703 -16.992297 -58.730704 11.613768 0.000000 0.000000 0.000000 21.221861 23.385683 13.379520 36.332358 41.610320 6.844783 -5.911524 40.267715 -0.212133 0.000000 0.000000 0.000000 
-0.000814 0.909463 0.000501 4.003887 0.274649 -1.401937 8.188480 -0.290051 -10.668304 -6.562245 1.112136 16.195800 5.752746 13.268346 7.688792 0.000000 0.000000 0.000000 -15.315813 -0.301493 -17.179034 7.987877 -1.590708 23.485380 -6.617370 -17.408011 14.389476 0.000000 0.000000 0.000000 8.232718 -4.276370 36.804882 -3.001606 1.387874 -17.064844 -2.695729 4.994365 21.824747 17.002895 -10.746703 -14.730426 0.000000 0.000000 0.000000 -9.406765 -32.171510 12.596974 -37.328026 -28.011059 2.579967 -16.575240 -61.634829 11.997741 0.000000 0.000000 0.000000 20.443394 22.894734 12.956401 37.057604 42.562268 7.484903 -7.744158 38.128645 -0.812545 0.000000 0.000000 0.000000 
-0.000837 0.908111 0.000420 4.430343 0.546336 -1.696864 7.567778 -0.338191 -10.477944 -6.297312 1.036384 16.372695 5.707405 13.141855 7.296624 0.000000 0.000000 0.000000 -15.726785 -0.389894 -17.290528 7.843717 -1.590938 24.407419 -6.723294 -17.546814 14.131232 0.000000 0.000000 0.000000 8.741632 -4.459235 36.757566 -3.775402 1.636273 -17.228031 -2.973955 4.267716 21.937669 16.590708 -10.235810 -15.603579 0.000000 0.000000 0.000000 -9.593361 -32.370806 12.806039 -38.507783 -27.548706 2.600114 -16.471529 -63.385591 12.497257 0.000000 0.000000 0.000000 20.141415 22.922402 12.708411 36.246040 42.284041 7.178650 -6.823405 35.622722 -0.569786 0.000000 0.000000 0.000000 
-0.000861 0.907847 -0.000164 4.533774 0.508606 -1.780913 7.701502 -0.320242 -10.309803 -6.714707 1.141300 16.173130 5.705953 13.134842 7.282402 0.000000 0.000000 0.000000 -15.793626 -0.400389 -17.317777 7.765479 -1.564578 24.533537 -6.706965 -17.517613 14.040351 0.000000 0.000000 0.000000 8.820945 -4.539755 37.247792 -3.695326 1.607466 -17.524954 -3.101090 4.846510 22.164108 16.418644 -9.743916 -16.626029 0.000000 0.000000 0.000000 -10.520286 -33.091964 13.235388 -38.894271 -27.567103 2.670389 -17.920245 -64.966850 13.742757 0.000000 0.000000 0.000000 19.455769 22.886524 12.665636 35.305452 42.173544 6.862579 -7.939733 33.515020 -0.868481 0.000000 0.000000 0.000000 
-0.000941 0.907609 -0.001267 4.695306 1.149301 -1.672705 7.383244 -0.382382 -10.996522 -6.461894 1.058286 16.840771 5.457271 12.743215 7.306614 0.000000 0.000000 0.000000 -16.012106 -0.481143 -17.455728 7.780068 -1.633071 24.790081 -6.967201 -17.904309 14.252704 0.000000 0.000000 0.000000 9.171299 -4.781092 37.457671 -3.787987 1.647929 -17.579302 -3.470978 4.371757 21.969312 16.406278 -9.549103 -17.272993 0.000000 0.000000 0.000000 -11.054316 -32.772075 13.244844 -40.031998 -27.409257 2.777555 -19.767096 -67.237414 15.689413 0.000000 0.000000 0.000000 18.826634 22.908142 12.486308 34.588313 42.288462 6.720281 -7.782612 31.425734 -0.809037 0.000000 0.000000 0.000000 
-0.001272 0.907837 -0.002690 4.707871 1.253187 -1.610236 7.506951 -0.381213 -11.215648 -6.659686 1.105216 16.883449 5.379750 12.648407 7.500396 0.000000 0.000000 0.000000 -16.031840 -0.500013 -17.681999 7.817669 -1.660881 24.937444 -6.993546 -17.947645 14.521507 0.000000 0.000000 0.000000 9.256403 -4.919577 38.104190 -3.848587 1.665316 -17.814197 -3.699432 4.525840 21.982293 16.157562 -9.327925 -17.327788 0.000000 0.000000 0.000000 -11.774223 -32.854855 13.411113 -40.577984 -27.213310 2.789846 -21.191043 -70.039197 17.548340 0.000000 0.000000 0.000000 18.010376 22.661429 12.211672 34.708818 42.834868 6.952297 -8.238659 29.937162 -0.883719 0.000000 0.000000 0.000000 
